<svg version="1" xmlns="http://www.w3.org/2000/svg" width="1600" height="1600" viewBox="0 0 1200.000000 1200.000000"><path d="M583.7 89.7c-.2.1-2.7.5-5.7.8-3 .3-6.2.7-7 .8-.8.2-3.7.8-6.5 1.2-5.7 1-5.5 1-7.5 1.8-.8.3-2.8.8-4.5 1.2-6.6 1.4-26.4 10.1-35.8 15.6-13.8 8.2-20.1 13.2-32.2 25.5-7.4 7.5-18.5 21.4-18.5 23.2 0 .6-.4 1.2-.8 1.4-1 .4-5.2 7.6-9.9 17.1-4.3 8.7-11.1 29.2-11.7 35.2-.3 2.5-.7 4.9-.9 5.3-2.5 4.1-2.6 40.7-.2 51.7.3 1.1.7 3.1.9 4.5.3 1.4.8 3.6 1.1 5 .4 1.4.8 3.4 1 4.5 1.2 7 12.6 34.4 14.7 35.3.5.2.8.8.8 1.4 0 .6 2.6 4.9 5.8 9.5 3.1 4.7 6.4 9.5 7.2 10.7 2 3 20.9 21.7 24.3 24.1 1.6 1.1 4.1 3 5.5 4.3 3.7 3.2 17.1 11.1 26.6 15.6 7.6 3.7 24.6 9.9 24.6 9.1 0-.3 1.1 0 2.6.5 1.4.6 3.7 1.2 5.2 1.5 1.5.3 3.8.7 5.2 1 6.5 1.3 19.5 2.6 27 2.7 4.5 0 20.2-1.1 23.2-1.8 1.3-.2 4.1-.7 6.3-1 2.2-.4 7.6-1.7 12-3 4.4-1.4 8.5-2.6 9-2.7 3.2-1 6.5-2.1 10-3.7 2.2-1 5.6-2.5 7.5-3.4 5.6-2.4 16.2-8.7 23-13.6 7.6-5.4 27.3-24.2 31.5-30 1.7-2.3 3.8-5.1 4.8-6.1.9-1 1.4-1.9 1-1.9-.5 0-.3-.4.2-.8 1.1-.8 3.3-4 6.5-9.6 1.1-2 2.9-5.1 3.9-7 2.3-4 9.8-22.5 10.5-25.8.3-1.3 1.2-4.8 2-7.8.9-3 1.9-7.5 2.2-10 .3-2.5.8-5.4 1-6.5.7-3.9 1.6-16.1 1.6-21.5-.1-14.4-3.8-38.1-7.1-45.5-.5-1.1-2.1-5.4-3.6-9.5-4.5-12.4-16.2-33-22.9-40.7-.6-.7-1.5-1.8-2.1-2.5-2.5-3.3-7.5-8.8-7.5-8.4 0 .3-1.9-1.5-4.2-4.1-2.4-2.5-7-6.6-10.3-9.1-3.3-2.6-6.2-4.9-6.5-5.2-.3-.3-3.4-2.3-7-4.5s-7.4-4.6-8.5-5.3c-1.8-1.1-14.2-7.1-19-9.1-8.4-3.6-28.4-8.5-39.5-9.7-5.7-.6-28.9-1.2-29.3-.7z"/><path d="M783.1 119.8l3.6 6.3c.7 1.5 2 3.2 2.8 3.9.8.7 1.3 1.6 1 2-.3.5-.1 1.1.4 1.4 1 .7 12.1 23 14.1 28.6.7 1.9 1.9 4.8 2.6 6.5 2.8 6.7 8.4 27.9 9.9 37.5.2 1.4.6 3.9.9 5.6 2 10.9 2.7 42.3 1.3 55.9-.6 5.7-4.1 26.1-5.1 30-2.7 10.5-7.2 24.8-9.1 29-.7 1.6-1.8 4.1-2.3 5.5-2.1 5-9.5 20.5-10.1 21-.4.3-1.2 1.6-1.9 3-2 3.9-10.1 16.6-12.5 19.5-.4.5-2.5 3.2-4.5 6-2.1 2.7-4.8 6.3-6.2 8-3.4 4.1-22.7 23.4-27 27-6.5 5.5-15.8 12.5-16.6 12.5-.4 0-1.4.7-2.3 1.5-2.4 2.3-7.8 5.7-17.7 11-4.9 2.7-9.2 5.3-9.6 5.9-.4.6-.8.7-.8.2 0-.5-.7-.3-1.5.4s-1.5.9-1.5.4-.4-.4-.8.2c-1.2 1.9-29.6 12.3-37.6 13.9-1.1.2-2.1.4-2.1.5 0 .1-.7.3-1.5.5-.8.1-4 .8-7 1.4-11.6 2.4-13.6 2.7-24.5 3.8-9.1.9-35.2.9-43.5 0-9.7-1.1-14.2-1.7-17-2.2-1.4-.3-3.8-.8-5.5-1.1-1.6-.3-5.7-1.2-9-2.1-3.3-.8-6.8-1.6-7.7-1.8-.9-.2-2.6-.9-3.7-1.5-1.2-.6-2.1-.9-2.1-.6 0 1.1-14.8-4.5-27.8-10.5-3.5-1.6-6.8-2.9-7.3-2.9s-.9-.3-.9-.8c0-.4-1.5-1.3-3.2-2.1-1.8-.8-5.7-2.9-8.6-4.8-2.9-1.8-5.4-3.3-5.7-3.3-.5 0-9.7-6.1-10.5-7-.3-.3-4.3-3.5-9-7.1-16.3-12.7-34.5-32-45-47.9-.8-1.2-2.1-2.8-2.7-3.6-.7-.7-1.3-1.6-1.3-1.9 0-.4-.8-1.9-1.9-3.3-7.6-10.7-22-42-24.7-53.7-1-4.2-1.3-5-1.4-5-.1 0-.3-.7-.5-1.5-.1-.8-1-4.4-1.9-8-2.1-8.5-2.5-10.6-3.2-16-.3-2.5-.7-6.1-1-8-1.7-12.9-2.1-30.2-1.1-43.5 1.3-15.6 2.5-25.3 3.3-26.7.3-.4.7-2.2.9-4 .3-1.8 1.2-5.8 2-8.8.9-3 1.8-6.3 2-7.3.2-.9.6-2.1.9-2.5.3-.5.7-1.9 1-3.3 1.3-6.5 12.5-32.1 18.1-41.4 1.4-2.2 2.8-4.7 3.2-5.5.4-.8 1.7-3 3-4.9 1.3-1.9 2.3-3.8 2.3-4.3 0-1.1-6.2-.3-11 1.4-.8.3-7.8 2.7-15.5 5.3-7.7 2.6-15.1 5.2-16.5 5.8-1.4.6-2.7 1.1-3 1.1-2 .5-10.7 4.1-11.7 4.9-.7.5-1.3.6-1.3.3 0-.4-1.2 0-2.7.8-3 1.6-14.1 6.6-14.8 6.6-.5 0-14.5 6.5-26 12.1-4.4 2.2-11.8 6-16.5 8.5-4.7 2.6-9.9 5.4-11.5 6.3-4.1 2.2-22.9 13.4-23.5 14.1-.3.3-1.7 1.1-3.2 1.9-1.6.8-2.8 1.8-2.8 2.3 0 .4-.5.8-1.1.8-1.4 0-16.9 10-16.9 10.9 0 .4-1.5 1.4-3.2 2.3-1.8.9-4.4 2.5-5.8 3.6-1.4 1.1-6.4 5-11.2 8.6-10.3 7.7-11.6 8.8-17.6 14.2l-4.5 4.1v12.9c0 12 .4 17.7 1.8 26.4.3 1.9.7 4.8 1 6.5 1.1 8.4 7.8 33.6 9.5 36 .4.5 1.5 3.5 2.4 6.5 2 6.1 11.6 26.1 17.1 35.5 2 3.3 4 7 4.7 8.2.6 1.3 1.5 2.3 2 2.3.4 0 .8.5.8 1.2 0 .6 3.2 5.4 7.2 10.7 19.8 26.5 43.3 49.8 69.1 68.6 5.6 4.1 10.9 8 11.7 8.7.9.7 3.8 2.7 6.5 4.3 2.8 1.6 5.6 3.5 6.3 4.2.7.7 1.7 1.3 2.2 1.3.5 0 2.9 1.3 5.3 3 2.5 1.7 4.9 3 5.5 3 .6 0 1.2.3 1.4.7.4 1.1 7.6 4.9 23.8 12.9 21 10.3 24.9 12 43.7 19 8.2 3 16.6 6 18.8 6.6 5.1 1.4 4 1.1 18 5.3 6.6 2 12.8 3.8 13.9 4 1 .3 7.7 1.8 15 3.4 7.2 1.7 14.7 3.3 16.6 3.6 1.9.3 4.9.8 6.5 1.1 4.8.9 6.7 1.2 12 1.9 2.8.3 5.7.8 6.5 1 .8.2 4 .7 7 1.1 3 .3 6.6.8 8 .9 35.2 4.3 80.6 4.7 116.5 1.1 2.2-.3 6.5-.7 9.5-1 8.8-.8 21.7-2.5 24-3.1.8-.3 3.1-.7 5-.9 6.9-.9 21.7-3.8 33-6.6 6.3-1.6 12.6-3.1 14-3.4 7.4-1.4 40.8-12 49.9-15.8 1.4-.6 2.8-1.2 3.1-1.3.3-.1 1.4-.5 2.5-.9 4.4-1.7 5-1.9 5.5-2.1.3-.1 2.1-.8 4-1.7 1.9-.8 6.2-2.7 9.5-4.1 14.4-6.2 51.5-25.9 52.3-27.9.2-.5.8-.8 1.3-.8 1.2 0 16.3-10.1 16.7-11.2.2-.4.9-.8 1.5-.8.7 0 2.3-1 3.7-2.3 1.4-1.3 3.3-2.6 4.3-3 .9-.3 1.7-1.1 1.7-1.7 0-.5.4-1 1-1 .5 0 1.8-.6 2.7-1.4 11.2-9.2 18.2-15.2 25.7-22 4.8-4.4 9.2-8.3 9.7-8.4.5-.2.9-.8.9-1.3 0-.6 1-2 2.3-3.2 4.3-4.3 16.1-17.9 19.2-22.2 1.1-1.6 2.5-3.3 3.1-3.9 1.6-1.7 13.6-19.4 16.8-25 4.2-7.2 10.8-20.2 13.9-27.6 1.6-3.6 3.2-7.4 3.7-8.5 1.9-4.3 6-16.7 6.5-19.7.3-1.7.9-3.6 1.3-4.2.3-.6.7-1.6.8-2.1.1-.6.5-2.6.8-4.5.4-1.9.9-4.2 1.2-5.1.2-.9.7-3.2.9-5 .3-1.9.7-4.5 1-5.9 2.9-14.6 3.6-42.9 1.1-49.6-1-2.8-47.6-36.4-50.5-36.4-.5 0-1.1-.3-1.3-.8-.5-1.1-11.5-8.2-12.7-8.2-.6 0-1.1-.3-1.1-.8 0-.4-1.5-1.3-3.2-2.1-1.8-.8-3.5-1.7-3.8-2.1-1.4-1.8-39-21.7-46.5-24.5-2.5-1-4.5-2.2-4.5-2.6 0-.5-.6-.9-1.4-.9-.8 0-5.4-1.8-10.1-4-4.7-2.2-8.9-4-9.2-4-.3 0-1.9-.6-3.6-1.4-11-5.1-35.1-13.8-55.5-20.2-.7-.2-1.4-.4-1.7-.4-.3 0-2.4-.8-4.7-1.6-2.4-.9-6-1.7-8.1-1.9l-3.8-.3 2.2 3.6z"/><path d="M1068.9 294.8c-.1.4-.3 1.6-.4 2.8-.1 1.1-.7 4.2-1.4 7-.6 2.7-1.1 5.1-1 5.4.1.3-.2 1.4-.8 2.5-.6 1.1-1.3 3.6-1.7 5.5-.3 1.9-2.6 9.3-5.1 16.5-2.5 7.1-4.7 13.4-4.8 14-.2.5-.8 1.9-1.4 3-.6 1.1-1.2 2.4-1.3 3-.9 4.3-17.6 38-21.3 42.9-.4.6-2.8 4.2-5.2 8.1-2.4 3.8-5 7.7-5.8 8.5-.7.8-2.6 3.5-4.2 6-1.7 2.5-3.4 5-4 5.6-.5.6-1.9 2.3-3 3.9-1.1 1.5-3.2 4.2-4.6 5.9-1.4 1.7-3.4 4.2-4.5 5.5-11.6 14.4-38.4 40.7-54.7 53.6-2.1 1.6-4.4 3.5-5 4.1-.7.6-5.7 4.4-11.2 8.4-5.5 4.1-10.2 7.6-10.5 7.9-.7.8-4.1 3-6 3.8-.8.4-1.7.9-2 1.2-.8.9-9.1 6.3-13 8.4-1.9 1.1-3.7 2.2-4 2.6-.3.3-2.5 1.7-5 3s-5 2.8-5.6 3.3c-3.1 2.4-35.5 18.8-37.1 18.8-.7 0-1.3.4-1.3 1 0 .5-.4 1-.9 1s-2 .4-3.3.9c-1.3.5-2.7.9-3.2.9s-1.2.4-1.5.9c-.5.8-20.4 9.3-25.6 10.9-.5.2-8.9 3.1-18.5 6.4-9.6 3.4-18.4 6.3-19.4 6.6-1.1.2-4.2 1-7 1.9-2.8.9-6.4 2-8.1 2.5-5.1 1.5-23.8 5.9-28 6.6-2.2.3-4.3.8-4.7 1.1-1 .5-3.9 1.1-9.8 1.9-2.5.3-4.8.8-5.1 1-.5.3-2.4.7-9.6 1.9-1.6.2-4.1.6-5.8.9-1.6.3-5.2.8-8 1.1-6.8.8-10.2 1.3-15.5 2-2.5.4-6.7.9-9.5 1.1-2.7.2-7.5.7-10.5.9-3 .3-9.1.8-13.5 1.1-11.4.7-68.8 1.3-69.9.6-.5-.3-4.5-.6-9-.8-10.9-.5-20.9-1.4-43.1-4-3.3-.4-7.1-.8-8.5-.9-1.4-.2-2.5-.4-2.5-.5 0-.3-3.8-.9-9.5-1.6-3-.3-5.8-.8-6.1-1-.4-.2-2.2-.6-4.1-.9-3.3-.5-20.8-4.2-23.8-4.9-.8-.2-6.3-1.6-12.2-3-22.2-5.4-61.4-18.1-74.3-24.1-3.2-1.5-8.7-3.7-9.5-4-.3 0-2.5-1-5-2.2-2.5-1.1-7.9-3.5-12-5.4-4.1-1.8-10-4.7-13-6.3-3-1.6-8.4-4.5-12-6.3-3.6-1.9-8.7-4.8-11.5-6.4-2.7-1.7-5.8-3.3-6.8-3.6-.9-.3-1.7-.9-1.7-1.4 0-.5-.7-.9-1.5-.9s-1.5-.5-1.5-1c0-.6-.5-1-1-1-.6 0-2.3-.8-3.8-1.9-1.5-1-5.4-3.6-8.8-5.8-13.8-9-36.5-26.1-47.9-36.2-5.5-4.9-35.3-34.8-39-39.1-2.4-2.7-13.1-16.1-17.3-21.5-5.8-7.5-16.4-23.3-18.4-27.5-.6-1.4-1.7-3.2-2.4-4-3.6-4.4-22.4-44.1-23.9-50.5-.1-.6-.8-2.4-1.4-4-.7-1.7-1.4-3.7-1.6-4.5-.2-.8-1.3-4.4-2.4-8-1.9-6.2-4.9-17.6-5.6-21.3-1-4.8-2.5-4.4-7.9 2.3-5.7 6.9-6 7.3-8.6 11-1.3 1.9-2.9 4-3.5 4.6-1.3 1.4-5.5 6.9-7.5 9.9-5.4 8-7.6 11-8.2 11.3-.5.2-.8.8-.8 1.3 0 .7-2.9 5.3-10 15.9-.9 1.4-3 5-4.7 8-1.7 3-4.5 8-6.2 11-3.3 5.8-20.1 39.5-20.1 40.3 0 .2-.8 2.2-1.7 4.3-.9 2.2-1.7 4.1-1.8 4.4-.2.5-.5 1.4-4 10-1.3 3-3.7 9.4-5.4 14.3-3.3 9.6-3.2 10.9 1.4 16.2 7.3 8.2 19.3 21.1 22 23.4 1.6 1.4 5.6 5.1 8.8 8.1 3.2 3 6.4 5.9 7 6.5.7.5 3.3 2.8 5.8 5 5.8 5.2 9.3 8.1 15.4 13 2.8 2.2 5.1 4.3 5.3 4.7.2.5.8.8 1.4.8.5 0 1.5.6 2.2 1.2 1.4 1.4 1.6 1.6 15.6 11.8 5.2 3.8 10 7.4 10.7 8 .7.5 1.7 1 2.3 1 .5 0 1 .5 1 1.1 0 .5.4.8.9.5.5-.4 1.1-.3 1.3.2.4 1.1 9.7 7.2 10.9 7.2.5 0 .9.4.9.8 0 .5 1.5 1.6 3.2 2.5 1.8 1 6.5 3.7 10.3 6.2 3.9 2.4 8.4 5.1 10 5.9 1.7.8 5.7 3.1 9 5 5 3 48.4 24.8 55 27.7 11.5 5 16.1 6.9 29.5 12.4 19.2 7.8 73.6 26.2 82.6 27.9 1.2.2 5.2 1.3 9 2.4 7.1 2.1 26.9 7 31.4 7.9 1.4.2 5 1 8 1.8s6.8 1.6 8.4 1.9c1.6.3 5.4 1 8.5 1.7 3 .6 6.4 1.2 7.5 1.4 1.2.1 8.9 1.4 17.1 2.8 16.5 2.8 21.5 3.6 26 4.2 1.7.3 5 .7 7.5 1.1 2.5.3 5.9.8 7.5 1 8.8 1 12.5 1.4 17 1.8 2.8.3 7.5.8 10.5 1.1 12.8 1.4 16.9 1.6 41 3 12.5.7 84.9.8 97 .1 7.5-.4 19.5-1.2 31.5-2.1 3.8-.3 13.5-1.2 22-2.1 2.2-.2 6-.6 8.5-.8 5.8-.6 12.4-1.5 16.1-2.1 1.6-.3 4.8-.7 7.2-1 2.3-.2 5.3-.6 6.7-.9 1.4-.2 4.7-.7 7.4-1.1 2.7-.3 5.2-.8 5.5-.9.3-.2 3.3-.7 6.6-1.1 3.2-.3 6.2-.8 6.5-1 .3-.2 2.3-.6 4.5-.9 2.2-.3 6.3-1.1 9-1.6 2.8-.6 5.9-1.2 7-1.4 11.4-2.3 19-4 24-5.3 6.4-1.6 8.7-2.1 12.3-2.9 5.3-1 7.1-1.5 14.2-3.4 4.1-1.2 10.7-3 14.5-4.1 3.9-1.1 7.7-2.1 8.5-2.3 5.1-1.3 31.7-9.9 33.2-10.7 1-.5 1.8-.8 1.8-.5 0 .2 3.5-.9 7.8-2.6 4.2-1.6 10.4-3.9 13.7-5 3.3-1.1 6.4-2.4 6.9-2.9.6-.5 1.6-.9 2.4-.9.7 0 3.2-.8 5.5-1.9 2.3-1 7.2-3 10.9-4.5 9.1-3.6 19.3-8.1 24.8-11 2.5-1.4 4.7-2.4 5-2.3.6.2 30.8-14.9 38.5-19.2 8.4-4.7 14.8-8.3 18.5-10.5 15.6-9.2 32.3-19.9 42.9-27.6 6.1-4.4 11.4-8 11.6-8 .3 0 1.4-.8 2.4-1.8 1.1-.9 2.6-2.2 3.3-2.7 12.1-9.2 27.9-22.4 35.6-29.7 2.8-2.7 5.2-4.8 5.2-4.5 0 .6 23.5-23.5 29.1-29.8 2.4-2.7 5.9-6.5 7.6-8.5 3.1-3.3 3.6-4.5 3.5-8 0-2-8.2-23.2-9.3-24.5-.5-.5-.9-1.5-.9-2.3 0-2.5-17.8-39.4-24.2-50.1-2.1-3.4-3.8-6.5-3.8-6.7 0-.7-13.2-21.7-15.6-25-1.3-1.7-2.4-3.4-2.4-3.8 0-.4-1.3-2.4-2.8-4.4-1.6-2-6.2-8.2-10.2-13.7-16.1-21.7-26.5-33.1-27.1-29.7z"/><path d="M1181.8 541.7c-1 .2-1.8.8-1.8 1.3 0 2.3-38.6 34.9-63.7 53.9-8.4 6.3-30.3 21.1-31.3 21.1-.5 0-1 .4-1.2.8-.5 1.2-21 13.8-39.3 24.2-11.5 6.6-45.2 23.8-54.6 27.9-3 1.3-7.7 3.4-10.4 4.6-2.8 1.3-9.1 3.9-14 6-5 2-10.1 4.2-11.5 4.8-1.4.6-2.7 1.1-3 1.1-.3.1-3 1.1-6 2.3-7.9 3.2-11.4 4.6-12 4.8-.3.1-1.4.5-2.5.9-7.9 3.1-11.9 4.4-26.5 9.3-9.1 3-16.9 5.6-17.5 5.8-.5.1-1.7.5-2.5.8-1.7.6-12.7 3.7-15 4.2-.8.2-2.7.8-4.3 1.4-1.5.6-3.8 1.3-5 1.5-1.2.2-4.9 1.2-8.2 2.1-3.3.9-7.1 1.8-8.5 2.1-1.4.3-4.3 1-6.5 1.6-2.2.6-4.4 1.3-5 1.4-.5.2-2.3.6-4 .9-1.6.3-3.9.9-5 1.2-1.1.4-2.2.7-2.5.8-1.9.4-7.8 1.6-9.5 2-3.5.8-20.9 4.4-23.5 4.9-1.4.2-3.6.7-5 1-1.4.3-4.1.8-6 1.1-1.9.3-4.7.8-6.2 1-4.7.8-8.1 1.4-11.8 1.9-1.9.3-4.6.8-6 1.1-1.4.3-4.5.8-7 1.1-2.5.3-5.8.8-7.5 1-4 .7-9 1.4-14.5 2-2.5.2-5.8.7-7.5.9-1.6.2-5.7.7-9 1-3.3.3-8.2.8-11 1.1-64.6 6.2-142.5 6.2-200.5-.1-3-.4-7.3-.8-9.5-1-9.9-1-16.2-1.7-26-3.2-2.2-.3-5.2-.6-6.8-.7-1.5 0-2.7-.3-2.7-.6s-1.2-.6-2.7-.6c-3.5-.2-9.5-1.1-20.3-3-4.7-.8-10.1-1.7-12-2-1.9-.2-4.2-.7-5.1-1-.9-.2-3.2-.7-5-.9-4-.6-7.4-1.2-9.7-1.9-.9-.3-2.8-.7-4.2-1-9.2-1.6-41.6-9.3-50.5-12-.5-.2-2.3-.6-4-1-6.2-1.6-17.4-4.8-27-7.9-5.5-1.7-10.3-3.2-10.7-3.3-.5-.1-1-.3-1.3-.4-.3-.1-.8-.3-1.2-.4-9.9-2.4-61.9-21.9-79.3-29.8-2.5-1.2-4.7-2.1-5-2-.3 0-1.6-.6-3-1.3-1.4-.8-7.4-3.7-13.5-6.5-18.9-8.9-36.2-17.8-48.5-24.9-3-1.8-6.3-3.5-7.2-3.8-1-.3-1.8-.9-1.8-1.4 0-.5-.4-.9-1-.9-.5 0-3.9-1.8-7.5-4s-6.9-4-7.4-4-1.1-.3-1.3-.8c-.1-.4-2.8-2.3-5.8-4.2-9-5.6-19.1-12.2-25.5-16.8-3.3-2.3-7.1-5-8.5-6-4.1-2.9-22.5-16.6-23-17.2-.3-.4-2.3-1.9-4.5-3.6-2.1-1.6-5.3-4.1-7-5.6-1.6-1.4-7-6.1-12-10.3-4.9-4.3-11.6-10.2-14.7-13.2-5.2-4.9-5.8-5.2-6.7-3.5-2.3 4.3-3.2 19.9-3.2 52.2 0 23.3.5 37.3 1.5 44.7.3 2.1.8 6.3 1.1 9.3.3 3 .8 6.6 1 8 .2 1.4.7 4.3 1 6.5.3 2.3.8 5.2 1 6.5.3 1.4.8 4.1 1.1 6 .4 2.9 1.8 8.8 5 22.5.3 1.1.7 2.9.9 4 .4 1.6 4.1 15.2 5.8 21 1.6 5.4 1.6 5.4 17 10.4 16 5.1 63.4 19.2 64.9 19.2.2 0 4.4 1.1 9.3 2.5 5 1.4 10.1 2.7 11.5 3 1.3.3 10.5 2.6 20.5 5.1 9.9 2.5 18.9 4.7 20 4.9 1.1.2 3.8.7 6 1.3 4.5 1 42.7 9 46.5 9.7 1.4.3 5.7 1.1 9.5 1.9 3.9.8 8.6 1.7 10.5 2 1.9.3 7.3 1.3 12 2.1 4.7.9 9.6 1.8 11 2 1.4.2 4.1.7 6 1 1.9.4 4.4.8 5.5 1 1.1.2 3.4.5 5 .8 1.7.3 4.6.7 6.5 1 1.9.3 4.5.8 5.7 1 1.1.3 4.3.7 7 1.1 2.6.4 6.2.9 7.8 1.2 1.7.3 4.1.6 5.5.8 3.3.4 10.9 1.5 14 2 1.4.2 5.2.7 8.5 1 3.3.4 7.2.8 8.6 1.1 1.5.2 4.7.6 7 .9 2.4.3 6 .8 8 1 2 .3 5.6.7 8 1 5 .4 12.3 1.2 18.9 2.1 2.5.3 6.5.7 9 .9 2.5.2 7.4.6 11 1 6.2.6 9.9 1 22 1.9 3 .3 8.9.8 13 1.1 7.3.6 12.2.9 28.5 2 77.3 4.7 168.3 4.8 245 0 14.6-.9 35.4-2.4 42-3 15.4-1.4 18.4-1.6 23-2 6.2-.5 14.6-1.3 20.5-2.1 2.5-.2 6.1-.7 8-.9 1.9-.2 5.8-.7 8.5-1 2.8-.3 7.3-.8 10-1 2.8-.2 6.6-.7 8.5-1 1.9-.3 5.3-.8 7.5-1.1 2.2-.2 5.5-.7 7.3-.9 1.7-.3 4.7-.7 6.5-.9 11.7-1.5 20.4-2.8 28.7-4 1.4-.2 4.8-.7 7.5-1.1 2.8-.4 5.9-1 7-1.2 1.1-.2 3.4-.6 5-.9 1.7-.2 4.1-.7 5.3-1 2.3-.5 6-1 12.7-1.9 1.7-.2 3-.4 3-.5 0-.1 1.1-.3 2.5-.6 1.4-.2 4.1-.7 6-1 1.9-.4 4.2-.8 5-.9.8-.1 4.4-.8 8-1.5 3.6-.7 7.4-1.4 8.5-1.6 7.3-1.2 17.2-3.2 25-5 1.1-.3 4-.9 6.5-1.4 2.5-.5 9.7-2.1 16-3.5 6.3-1.5 12.9-2.9 14.5-3.2 1.7-.3 3.5-.6 4-.8 3.8-.8 7.2-1.7 8.5-2.2.8-.3 2.2-.7 3-.8.8-.2 4.4-1 8-1.9l8-2c.8-.2 3.3-.9 5.5-1.4 2.2-.6 5.1-1.3 6.5-1.6 1.4-.2 3.2-.7 4-1 .8-.3 2.6-.7 4-1 1.4-.2 4.4-1.1 6.8-2 2.3-.8 4.2-1.3 4.2-1.1 0 .2 1.8-.2 4-1s4.2-1.5 4.5-1.5c.3 0 1-.2 1.7-.4 1.3-.4 10.9-3 11.8-3.2.3 0 1.2-.3 2-.6.8-.4 8.3-2.6 16.5-5.1 42.1-12.6 46.1-14 47.2-17 1.4-4.2 8.2-30.2 8.9-34.1.2-1.6.7-3.2.9-3.6.2-.4.7-2.5.9-4.6.3-2.1 1-6.2 1.6-8.9.6-2.8 1.2-6.4 1.4-8 .2-1.7.6-4.8 1-7 3.2-22.6 3.8-32.5 3.7-62.5 0-21.6-.5-35.6-1.5-43-.2-1.9-.7-6.3-1.1-9.8-.7-6.1-1-6.5-4.7-5.5z"/><path d="M1128.7 815.6c-.4.4-24.8 7.4-27.2 7.8-1.4.3-2.9.7-3.5 1.1-.5.3-1.8.8-2.7 1-1 .2-5.3 1.3-9.6 2.4-4.2 1.2-8.7 2.3-10 2.5-1.2.3-2.2.5-2.2.7 0 .1-.9.3-2 .5s-3.8.8-6 1.4c-2.2.6-5.1 1.3-6.5 1.6-1.4.3-4.3 1-6.5 1.6-2.2.6-4.4 1.3-5 1.4-.5.2-2.1.5-3.5.8-1.4.3-7.9 1.9-14.5 3.5s-13.3 3.2-15 3.5c-1.6.2-4.4.9-6.2 1.4-1.7.6-3.3.8-3.6.6-.2-.3-1.5 0-2.9.5s-3.8 1.1-5.4 1.4c-1.6.3-6.3 1.2-10.4 2-4.1.9-9.1 1.9-11 2.2-1.9.4-3.9.8-4.5.9-4.1.9-7.5 1.6-10.5 2-3.5.6-6.3 1.1-11 2.1-2.2.5-6.5 1.2-11 1.9-.8.2-4 .8-7 1.4-3 .6-7.3 1.4-9.5 1.6-2.2.3-4 .5-4 .6 0 .2-.3.2-9.5 1.5-3 .4-5.8.9-6.2 1.1-.4.3-2.6.6-5 .9-6.8.6-14.1 1.6-14.7 2-.5.3-4.8.9-14.1 2.1-1.4.1-4.5.5-7 .9-2.5.3-6.2.7-8.3 1-2.2.2-5.1.6-6.5.9-1.5.3-5.4.8-8.7 1.2-3.3.3-7.3.7-9 .9-3.8.4-11.7 1.3-17.5 2-2.5.3-7 .7-10 1-3 .2-7.3.7-9.5 1-5 .6-14.2 1.5-22 2-3.3.3-8.7.7-12 1-21.4 1.8-60.6 4-90 5.1-20.4.8-122.1.8-142.5 0-19.3-.7-37.5-1.5-46-2.1-3.6-.2-11-.6-16.5-.9-9.6-.6-14.3-.9-28.5-2.1-3.6-.3-8.7-.7-11.5-.9-2.7-.2-7.9-.7-11.5-1.1-7.8-.8-12.5-1.3-20.5-1.9-5.9-.5-11.5-1.2-18.6-2.2-2-.2-5.8-.7-8.5-1-2.7-.2-6.2-.6-7.9-.8-4.5-.6-13.7-1.7-16.5-2.1-3.4-.5-11.8-1.5-15.5-2-1.6-.2-4.3-.6-6-.9-1.6-.3-5.5-.8-8.5-1.1-3-.3-6.4-.9-7.5-1.2-1.1-.3-3.1-.7-4.5-.9-3.2-.3-8.6-1.1-12.6-1.8-2.9-.5-5.1-.9-14.1-2.1-2.1-.3-4.5-.7-5.3-1-.8-.2-2.8-.6-4.5-.9-1.6-.3-4.6-.8-6.5-1.1-1.9-.4-4.6-.8-6-1-2.9-.5-17.4-3.2-21-4-1.4-.2-4.7-.9-7.5-1.5-2.7-.5-6.1-1.2-7.5-1.5-1.4-.3-4.1-.8-6-1.1-1.9-.3-4.3-.7-5.2-1-.9-.3-2.7-.7-4-1-1.3-.3-3.2-.7-4.3-.9-1.1-.3-3.1-.7-4.5-1-2.6-.5-12.8-2.6-14.5-3-.5-.1-2.1-.5-3.5-.8-6-1.6-24.7-6-27-6.3-1.4-.3-7.5-1.8-13.5-3.4-6.1-1.7-12.1-3.3-13.5-3.6-1.4-.3-4.3-1-6.5-1.6-2.2-.6-4.7-1.2-5.5-1.4-.8-.1-3.6-.9-6.3-1.8-2.6-.8-4.7-1.3-4.7-1 0 .3-.8 0-1.8-.5-1.1-.6-3-1.2-4.3-1.5-3.6-.8-16.1-4.3-18.1-5.1-3.7-1.5-1.4 4.2 6.9 17.3 1.8 2.9 3.3 5.5 3.3 5.7 0 .3 2.5 4.2 5.5 8.6 3 4.4 5.5 8.4 5.5 9 0 .5.4.9.8.9s1.6 1.5 2.7 3.2c1.9 3.5 16.7 23.3 20.7 28 1.3 1.5 3 3.6 3.9 4.8 5.8 7.5 17.5 20.5 30.7 34.1 16.1 16.5 16.7 16.9 26.2 17.5 5.2.3 17 1.2 25 1.9 3 .3 8.7.7 12.5 1 3.9.2 9.5.7 12.5.9 3 .3 9.1.7 13.5 1 4.4.3 11.4.8 15.5 1.1 4.1.3 11.8.8 17 1.1 5.2.3 12.7.7 16.5 1 3.9.2 10.8.6 15.5.9 4.7.2 12.6.7 17.5 1 22.3 1.2 60.7 2.9 89 4 60.5 2.2 86.2 2.5 186 2.5 108.8 0 132.3-.4 212-3.5 24.9-1 35.3-1.5 45-2 5.5-.3 13.8-.8 18.5-1 4.7-.3 12.1-.7 16.5-1 7.6-.4 20.5-1.2 34.5-2 3.6-.2 10.3-.6 15-1 4.7-.3 11.2-.8 14.5-1 3.3-.2 9.8-.7 14.5-1 4.7-.4 11-.8 14-1 3-.2 8.7-.7 12.5-1 3.9-.4 9.5-.8 12.5-1 20.8-1.5 27.7-2.3 29.8-3.4 1.8-1 21-20.5 29.7-30.1 11.1-12.3 12.6-14.2 21.5-25.3.8-1.1 2-2.4 2.5-3.1 1.5-1.6 13.6-18.3 17.6-24.1 1.9-2.8 3.7-5.2 4.2-5.3.4-.2.7-.8.7-1.3s1.6-3.1 3.5-5.8c1.9-2.6 3.5-5.1 3.5-5.5 0-.4.5-1.2 1.1-1.9 2.6-3 14.6-24.3 14.2-25.4-.4-.9-3.8-1.5-4.6-.7zM919.6 1023.7c-.3.3-4.5.7-9.3.9-10.1.4-25.7 1.2-38.8 1.9-19.4 1.1-60.4 2.8-95 4-124 4.3-302.2 3.4-416-2-6-.3-15.9-.7-22-1-13.2-.6-27.9-1.3-39.5-2-19-1-22-1-22 .2 0 .6 3.1 2.9 6.9 5.1 6.7 3.9 43.4 22.2 44.5 22.2.3 0 3.1 1.2 6.3 2.6 29.8 13.4 76.4 29 107.3 35.8 11.2 2.5 31.5 6.8 36 7.6 3 .5 6.6 1.1 8 1.4 5 .9 16.7 2.7 20.5 3.2 2.2.3 5.1.6 6.5.8 1.4.2 5.4.7 9 1 3.6.4 8.1.9 10 1.1 14.6 1.9 33.7 2.6 67.5 2.6 25 0 52-.6 52-1.2 0 0 2.3-.3 5-.4 5.9-.3 19.7-1.8 27.5-3 1.9-.2 6.2-.7 9.5-1.1 3.3-.3 6.3-.8 6.6-1 .3-.1 2.8-.6 5.6-.9 2.7-.3 6-.8 7.4-1 1.3-.3 4-.8 5.9-1.1 1.9-.3 6.7-1.2 10.5-2.1 10.4-2.2 10.6-2.2 16-3.3 11.7-2.2 37.1-8.8 43.1-11 1.6-.6 2.9-1 2.9-.9 0 1 48.2-15.6 50-17.2.5-.5 1.5-.9 2.3-.9.7 0 3.2-.8 5.5-1.9 4-1.7 7.6-3.2 8.7-3.6 7-2.4 57.5-27 59.8-29.2.6-.6 2.1-1.5 3.2-1.8 1.1-.3 2-1.2 2-2 0-1.4-2.4-2.7-3.4-1.8z"/></svg>